<?xml version="1.0" encoding="UTF-8" standalone="no"?>
<!-- Created with Inkscape (http://www.inkscape.org/) -->

<svg
   version="1.1"
   id="svg182"
   width="13.228346"
   height="18.897638"
   viewBox="0 0 13.228346 18.897638"
   sodipodi:docname="infoLogo.svg"
   inkscape:version="1.2 (dc2aedaf03, 2022-05-15)"
   xmlns:inkscape="http://www.inkscape.org/namespaces/inkscape"
   xmlns:sodipodi="http://sodipodi.sourceforge.net/DTD/sodipodi-0.dtd"
   xmlns="http://www.w3.org/2000/svg"
   xmlns:svg="http://www.w3.org/2000/svg">
  <defs
     id="defs186" />
  <sodipodi:namedview
     id="namedview184"
     pagecolor="#ffff03"
     bordercolor="#000000"
     borderopacity="0.25"
     inkscape:showpageshadow="2"
     inkscape:pageopacity="0"
     inkscape:pagecheckerboard="0"
     inkscape:deskcolor="#d1d1d1"
     showgrid="false"
     inkscape:zoom="3.0339111"
     inkscape:cx="21.589294"
     inkscape:cy="45.815449"
     inkscape:window-width="1366"
     inkscape:window-height="705"
     inkscape:window-x="-8"
     inkscape:window-y="-8"
     inkscape:window-maximized="1"
     inkscape:current-layer="g188" />
  <g
     inkscape:groupmode="layer"
     inkscape:label="Image"
     id="g188"
     transform="translate(-97.759295,-1.1018997)">
    <path
       style="fill:#ffffff;stroke-width:0.14929"
       d="m 99.623247,19.738668 c -1.165807,-0.56171 -0.999969,-1.612628 0.952373,-6.035179 0.83612,-1.894039 1.52023,-3.521401 1.52023,-3.616359 0,-0.094958 -0.10084,-0.1726522 -0.22407,-0.1726522 -0.26943,0 -1.963973,0.9203662 -2.841313,1.5432182 -0.755104,0.53607 -1.089495,0.564611 -1.235332,0.105437 -0.154606,-0.486782 0.155799,-0.863544 1.625832,-1.9733892 2.068063,-1.561339 4.746463,-2.462184 7.320593,-2.462184 1.95627,0 2.40774,0.307465 2.40774,1.6397535 0,0.534571 -0.35856,1.5210207 -1.52932,4.2073117 -0.84112,1.92996 -1.56618,3.636387 -1.61124,3.79206 -0.21017,0.726154 0.69992,0.446394 2.47478,-0.76074 1.31043,-0.891263 1.72779,-0.956584 1.81011,-0.283303 0.0471,0.385411 -0.0956,0.547883 -1.34352,1.529455 -1.03333,0.812784 -1.75475,1.244788 -2.77557,1.662067 -2.48745,1.016793 -5.39321,1.382494 -6.551293,0.824504 z M 105.87448,5.7933233 c -1.09255,-0.2790639 -1.64341,-0.9146249 -1.64341,-1.8961082 0,-0.7883655 0.19421,-1.1545236 0.94982,-1.790795 0.65656,-0.5528644 1.22578,-0.7914873 2.25653,-0.9459587 3.11238,-0.46643389 4.75028,1.9531265 2.51688,3.7180254 -0.98528,0.7785905 -2.91721,1.211796 -4.07982,0.9148365 z"
       id="path246"
       sodipodi:nodetypes="ssssssssssssssssssssss" />
  </g>
</svg>
