<?xml version="1.0" encoding="UTF-8" standalone="no"?>
<!-- Created with Inkscape (http://www.inkscape.org/) -->

<svg
   version="1.1"
   id="svg8185"
   width="39.999969"
   height="25"
   viewBox="0 0 39.999969 25"
   sodipodi:docname="descarga.svg"
   inkscape:version="1.2 (dc2aedaf03, 2022-05-15)"
   xmlns:inkscape="http://www.inkscape.org/namespaces/inkscape"
   xmlns:sodipodi="http://sodipodi.sourceforge.net/DTD/sodipodi-0.dtd"
   xmlns="http://www.w3.org/2000/svg"
   xmlns:svg="http://www.w3.org/2000/svg">
  <defs
     id="defs8189" />
  <sodipodi:namedview
     id="namedview8187"
     pagecolor="#ffff9c"
     bordercolor="#000000"
     borderopacity="0.25"
     inkscape:showpageshadow="2"
     inkscape:pageopacity="0"
     inkscape:pagecheckerboard="0"
     inkscape:deskcolor="#d1d1d1"
     showgrid="false"
     inkscape:zoom="0.82495791"
     inkscape:cx="-45.456864"
     inkscape:cy="218.19295"
     inkscape:window-width="1366"
     inkscape:window-height="705"
     inkscape:window-x="-8"
     inkscape:window-y="-8"
     inkscape:window-maximized="1"
     inkscape:current-layer="g8191" />
  <g
     inkscape:groupmode="layer"
     inkscape:label="Image"
     id="g8191"
     transform="translate(-10.655371,-54.640666)">
    <path
       style="fill:#ffffff;stroke-width:0.170801"
       d="m 13.70916,79.539758 c -1.020582,-0.237415 -2.516761,-0.77472 -3.053789,-1.466492 l 0.0036,-11.213976 c 0.0038,-11.655848 -0.108685,-11.176166 1.206954,-11.886806 0.603633,-0.326051 0.715188,-0.331492 6.796478,-0.331492 7.416317,0 7.052311,-0.07502 9.959756,2.052703 2.796338,2.046415 2.395015,1.946787 8.196001,2.034643 4.43901,0.06723 4.968192,0.102354 5.549035,0.36833 0.967541,0.44305 1.41885,1.286349 1.41885,2.651211 v 1.14212 h -1.373949 -1.373949 v -1.028806 -1.028805 l -4.759753,-0.04877 -4.759752,-0.04877 -1.324876,-0.47524 C 29.221568,59.91088 28.35947,59.411894 26.955172,58.3851 c -1.052546,-0.7696 -2.106645,-1.475395 -2.342443,-1.568433 -0.290233,-0.114517 -2.17648,-0.16916 -5.839284,-0.16916 h -5.41056 v 10.042347 c 0,6.794394 0.06734,10.137628 0.208212,10.336951 0.44624,0.631395 1.753991,0.618237 2.61543,0.01241 0.05466,-0.03844 0.107522,-0.07927 0.158254,-0.122465 0.182675,-0.155553 1.707731,-2.8903 3.389012,-6.077215 2.600096,-4.928556 3.158617,-5.866575 3.737758,-6.277443 l 0.680884,-0.48305 h 12.280032 c 13.551718,0 13.058025,-0.0334 13.838713,0.936158 0.21073,0.261709 0.3836,0.709927 0.38416,0.996041 5.89e-4,0.325301 -1.10906,2.621068 -2.961777,6.127402 -3.251431,6.153451 -3.490699,6.467628 -5.447061,7.152407 -0.905048,0.316791 -1.045673,0.320165 -14.457151,0.346766 -7.448767,0.01477 -13.784867,-0.02935 -14.080222,-0.09806 z"
       id="path8312"
       sodipodi:nodetypes="scssssssscccccccsssscsssssscsscssss" />
  </g>
</svg>
