<?xml version="1.0" encoding="UTF-8" standalone="no"?>
<!-- Created with Inkscape (http://www.inkscape.org/) -->

<svg
   version="1.1"
   id="svg8448"
   width="30"
   height="30"
   viewBox="0 0 30 30"
   sodipodi:docname="quitButton.svg"
   inkscape:version="1.2 (dc2aedaf03, 2022-05-15)"
   xmlns:inkscape="http://www.inkscape.org/namespaces/inkscape"
   xmlns:sodipodi="http://sodipodi.sourceforge.net/DTD/sodipodi-0.dtd"
   xmlns="http://www.w3.org/2000/svg"
   xmlns:svg="http://www.w3.org/2000/svg">
  <defs
     id="defs8452" />
  <sodipodi:namedview
     id="namedview8450"
     pagecolor="#ffffff"
     bordercolor="#000000"
     borderopacity="0.25"
     inkscape:showpageshadow="2"
     inkscape:pageopacity="0.0"
     inkscape:pagecheckerboard="0"
     inkscape:deskcolor="#d1d1d1"
     showgrid="false"
     inkscape:zoom="8.9244444"
     inkscape:cx="27.956922"
     inkscape:cy="16.359562"
     inkscape:window-width="1366"
     inkscape:window-height="705"
     inkscape:window-x="-8"
     inkscape:window-y="-8"
     inkscape:window-maximized="1"
     inkscape:current-layer="g8454" />
  <g
     inkscape:groupmode="layer"
     inkscape:label="Image"
     id="g8454"
     transform="translate(7.1496547e-8,-34.757689)">
    <path
       style="fill:#f60000;stroke-width:0.142783;fill-opacity:1"
       d="M 13.215839,64.660647 C 4.0316696,63.531526 -1.9650791,54.453077 0.59304062,45.551052 1.7481067,41.531528 4.9318259,37.829147 8.7016552,36.121457 12.541286,34.382149 16.816036,34.304035 20.740192,35.901473 c 4.136645,1.683938 7.430274,5.354138 8.672949,9.664554 1.183811,4.106246 0.559429,8.551577 -1.717335,12.22666 -0.896113,1.446476 -3.207828,3.748328 -4.670002,4.650075 -2.884028,1.778629 -6.582162,2.614721 -9.809965,2.217885 z m 3.186779,-4.425397 c 2.465966,-0.363645 4.23911,-1.261402 6.031633,-3.05386 1.85811,-1.858042 2.756277,-3.675551 3.086106,-6.244973 0.563687,-4.39119 -1.946483,-8.879351 -6.051093,-10.819301 -1.067929,-0.504732 -1.480319,-0.529103 -1.922983,-0.11364 -0.712108,0.668352 -0.385666,1.213044 1.181042,1.970649 1.434893,0.693865 3.013416,2.141736 3.736916,3.427618 2.304189,4.095251 1.047826,9.16083 -2.891541,11.65852 -0.392839,0.249073 -1.228516,0.632388 -1.85706,0.851812 -1.005571,0.351043 -1.340081,0.397806 -2.78559,0.389406 -1.315314,-0.0077 -1.827875,-0.07352 -2.571314,-0.330478 C 9.2347136,56.891234 7.0322876,54.31537 6.5007918,51.119806 5.8933736,47.467765 7.8183464,43.694141 11.134079,42.036933 c 1.250487,-0.624996 1.510357,-0.858398 1.510357,-1.356523 0,-0.43386 -0.566997,-0.987239 -1.011533,-0.987239 -0.439079,0 -2.3764147,1.080614 -3.3452609,1.865931 -2.0735412,1.68075 -3.409335,4.098813 -3.7888624,6.858627 -0.2834966,2.061504 0.1302454,4.287059 1.171455,6.301363 0.4647795,0.899153 0.9066637,1.472358 1.8972754,2.461114 1.7397798,1.73652 3.3541549,2.591319 5.6483289,2.990746 1.373842,0.23919 1.925341,0.250316 3.186779,0.0643 z M 15.644302,47.114315 c 0.274307,-0.274045 0.285702,-0.475716 0.285702,-5.056165 0,-5.097402 0.0047,-5.062666 -0.709704,-5.28918 -0.287002,-0.091 -0.851465,0.133245 -1.038031,0.412386 -0.05772,0.08637 -0.105936,2.292391 -0.107138,4.902279 -0.0021,4.556508 0.0092,4.756604 0.283514,5.03068 0.157136,0.156985 0.446409,0.285428 0.642829,0.285428 0.196419,0 0.485692,-0.128443 0.642828,-0.285428 z"
       id="path8458" />
  </g>
</svg>
